<svg xmlns="http://www.w3.org/2000/svg" width="31" height="30" viewBox="0 0 31 30">
  <g id="Grupo_16" data-name="Grupo 16" transform="translate(-0.154)">
    <g id="Grupo_12" data-name="Grupo 12" transform="translate(0 0)">
      <g id="Grupo_10" data-name="Grupo 10" transform="translate(0 0)">
        <g id="Elipse_1" data-name="Elipse 1" transform="translate(0.154 0)" fill="#1a2930" stroke="#707070" stroke-width="1">
          <ellipse cx="15.5" cy="15" rx="15.5" ry="15" stroke="none"/>
          <ellipse cx="15.5" cy="15" rx="15" ry="14.5" fill="none"/>
        </g>
      </g>
    </g>
    <path id="Trazado_11" data-name="Trazado 11" d="M15.67-58.5H1.621A1.621,1.621,0,0,0,0-56.879v9.726a1.621,1.621,0,0,0,1.621,1.621H15.67a1.621,1.621,0,0,0,1.621-1.621v-9.726A1.621,1.621,0,0,0,15.67-58.5Zm0,1.621V-55.5c-.757.617-1.964,1.575-4.545,3.6-.569.447-1.7,1.522-2.479,1.51-.784.013-1.911-1.062-2.479-1.51-2.58-2.021-3.788-2.98-4.545-3.6v-1.378ZM1.621-47.153v-6.268c.774.616,1.871,1.481,3.544,2.791.738.581,2.031,1.864,3.48,1.856,1.443.008,2.719-1.256,3.48-1.856,1.673-1.31,2.77-2.175,3.544-2.791v6.268Z" transform="translate(6.736 67.182)" fill="#fff"/>
  </g>
</svg>
