<svg id="Grupo_14" data-name="Grupo 14" xmlns="http://www.w3.org/2000/svg" width="31" height="30" viewBox="0 0 31 30">
  <g id="Elipse_1" data-name="Elipse 1" transform="translate(0 0)" fill="#1a2930" stroke="#707070" stroke-width="1">
    <ellipse cx="15.5" cy="15" rx="15.5" ry="15" stroke="none"/>
    <ellipse cx="15.5" cy="15" rx="15" ry="14.5" fill="none"/>
  </g>
  <path id="Trazado_9" data-name="Trazado 9" d="M14.321-14.625H1.1A1.106,1.106,0,0,0,0-13.513v13.2A1.106,1.106,0,0,0,1.1.8H14.321a1.109,1.109,0,0,0,1.1-1.112v-13.2A1.109,1.109,0,0,0,14.321-14.625ZM4.661-1.405H2.375v-7.36H4.665v7.36ZM3.518-9.771A1.326,1.326,0,0,1,2.193-11.1a1.326,1.326,0,0,1,1.325-1.325A1.328,1.328,0,0,1,4.844-11.1,1.324,1.324,0,0,1,3.518-9.771ZM13.23-1.405H10.944v-3.58c0-.854-.017-1.952-1.188-1.952-1.191,0-1.374.93-1.374,1.89v3.642H6.1v-7.36H8.29V-7.76h.031a2.408,2.408,0,0,1,2.165-1.188c2.313,0,2.744,1.525,2.744,3.508Z" transform="translate(8.276 21.644)" fill="#fff"/>
</svg>
