<svg xmlns="http://www.w3.org/2000/svg" width="149.194" height="41.385" viewBox="0 0 149.194 41.385">
  <path id="Trazado_125" data-name="Trazado 125" d="M4.594,3.609a8.431,8.431,0,0,1-1-.062Q-.7,2.851-.7-2.44A17.307,17.307,0,0,1-.533-4.717a24.529,24.529,0,0,1,2.481-7.4Q5.8-20.18,10.6-23.748a5.089,5.089,0,0,1,2.892-1.333l.41-.021a.857.857,0,0,1,.369.062,1.073,1.073,0,0,1,.267.205,2.235,2.235,0,0,1,.523,1.077,6.821,6.821,0,0,1,.174,1.589,8.867,8.867,0,0,1-.164,1.7,4.546,4.546,0,0,1-.513,1.436q-.451.7-.82.7a.422.422,0,0,1-.369-.267.549.549,0,0,1-.041-.205,1.485,1.485,0,0,1,.287-.677,6.359,6.359,0,0,0,.636-2.769,4.076,4.076,0,0,0-.246-1.477A.607.607,0,0,0,13.822-24a.5.5,0,0,0-.287-.072,5.379,5.379,0,0,0-2.666,1.436A21.465,21.465,0,0,0,7.526-19.3,41.164,41.164,0,0,0,3.558-12.94,35.714,35.714,0,0,0,.841-6.255,11.554,11.554,0,0,0,.554-4.86,22.2,22.2,0,0,0,.431-2.174a8.983,8.983,0,0,0,.1,1.518A3.6,3.6,0,0,0,2.666,2.133a5.454,5.454,0,0,0,.554.246,5.876,5.876,0,0,0,1.374.1A8.147,8.147,0,0,0,5.763,2.42a5.192,5.192,0,0,0,.984-.287A20.9,20.9,0,0,0,12.94-2.01q.923-.82,2.461-2.3t2.84-2.779q1.3-1.3,1.518-1.589a.594.594,0,0,1,.461-.287.5.5,0,0,1,.369.174.591.591,0,0,1,.164.42.879.879,0,0,1-.062.308,18.123,18.123,0,0,1-1.569,1.671q-1.4,1.4-3.086,3.015T13.371-.9A25.852,25.852,0,0,1,8.552,2.553,8.634,8.634,0,0,1,4.594,3.609ZM21.041.595a1.684,1.684,0,0,1-.584-.072,1.486,1.486,0,0,1-.42-.308,1.328,1.328,0,0,1-.318-.41,1.447,1.447,0,0,1-.072-.523,3.418,3.418,0,0,1,1.374-2.461,5.664,5.664,0,0,1,1.5-1.066,4.668,4.668,0,0,1,1.989-.533,1.415,1.415,0,0,1,1.21.492,1.3,1.3,0,0,0,.369.431.434.434,0,0,1,.205.369,2.049,2.049,0,0,1-.267.82q-.123.267-.246.6a4.6,4.6,0,0,0-.185.636,2.421,2.421,0,0,0-.062.441.369.369,0,0,0,.031.164.986.986,0,0,0,.1.154.234.234,0,0,0,.195.092q.513,0,1.907-1.395,1.046-1.066,2.194-2.481a11.972,11.972,0,0,1,.831-.995,2.575,2.575,0,0,1,.461-.431.464.464,0,0,1,.164-.031.773.773,0,0,1,.308.062.312.312,0,0,1,.185.226,2.717,2.717,0,0,1,.041.574q0,.882.369.882l.164-.021A12.493,12.493,0,0,0,34.9-6.768Q35.848-8,36.237-8a.412.412,0,0,1,.3.133.434.434,0,0,1,.133.318,2.5,2.5,0,0,1-.451,1.087,14.664,14.664,0,0,0-1.128,2.492,6.6,6.6,0,0,0-.431,1.979q0,.656.451.656.636,0,2.584-1.7,1.21-1.087,1.641-1.087a.369.369,0,0,1,.328.226.4.4,0,0,1,.062.205,1.061,1.061,0,0,1-.349.6A14.278,14.278,0,0,1,38.206-2.01,11.9,11.9,0,0,1,36.34-.625a2.762,2.762,0,0,1-1.312.379,1.866,1.866,0,0,1-.554-.062,1.045,1.045,0,0,1-.39-.267,1.648,1.648,0,0,1-.533-1.333,4.95,4.95,0,0,1,.051-.677q.051-.369.113-.656a2.1,2.1,0,0,1,.092-.349.248.248,0,0,0,.031-.082.036.036,0,0,0-.041-.041,1.476,1.476,0,0,0-.451.246,1.75,1.75,0,0,1-1.025.349,1.664,1.664,0,0,1-.708-.123,1.041,1.041,0,0,1-.441-.451l-.205-.349q-.656.861-1.23,1.5a25.865,25.865,0,0,1-2.01,2.112,3.116,3.116,0,0,1-1.887.9,1.448,1.448,0,0,1-.656-.154,1.087,1.087,0,0,1-.461-.41,1.919,1.919,0,0,1-.215-.728l-.062-.472-.9.718a6.791,6.791,0,0,1-1.354.923A2.707,2.707,0,0,1,21.041.595ZM20.979-.431a1.888,1.888,0,0,0,.615-.133A3.132,3.132,0,0,0,22.271-.9a9.093,9.093,0,0,0,.81-.636q.5-.431.995-.9l1.148-1.107a2.955,2.955,0,0,0-.338-.144,1.2,1.2,0,0,0-.4-.062,3.265,3.265,0,0,0-1.343.359A5.784,5.784,0,0,0,21.7-2.42,2.96,2.96,0,0,0,20.672-.759Q20.672-.431,20.979-.431ZM41.959,2.953a2.459,2.459,0,0,1-.984-.164,2.927,2.927,0,0,1-1.364-1.446,7.212,7.212,0,0,1-.441-2.861,45.7,45.7,0,0,1,.615-6.4q.369-2.5.615-3.732l.615-3.466q.349-2.071.9-4.491t.574-2.584a.9.9,0,0,0-.164.215.525.525,0,0,1-.472.215q-.472-.021-.472-.349a2.088,2.088,0,0,1,.492-1,16.771,16.771,0,0,0,.923-1.415,2.621,2.621,0,0,1,.287-.451.491.491,0,0,1,.431-.267q.513,0,.513.615a2.621,2.621,0,0,1-.031.359q-.031.215-.267,1.313t-.564,2.574q-.328,1.477-.677,3.2t-.543,2.871q-.195,1.148-.369,2.112t-.256,1.333q-.369,1.907-.728,4.881A40.64,40.64,0,0,0,40.236-1.7a6.281,6.281,0,0,0,.441,2.758,1.53,1.53,0,0,0,1.466.831q1.661,0,4.737-2.728a24.33,24.33,0,0,0,1.784-1.723,3.98,3.98,0,0,0,.861-1.169.525.525,0,0,1,.226-.308.682.682,0,0,1,.369-.1.647.647,0,0,1,.349.1.543.543,0,0,1,.246.513.823.823,0,0,1-.051.3,4.4,4.4,0,0,1-.584.728A22.042,22.042,0,0,1,43.866,2.6,5.465,5.465,0,0,1,41.959,2.953ZM51.393-.492A1.973,1.973,0,0,1,50.2-1.025a2.493,2.493,0,0,1-.6-.667,1.707,1.707,0,0,1-.215-.892,4.89,4.89,0,0,1,.9-2.563,3.542,3.542,0,0,1,.841-.872,1.449,1.449,0,0,1,.8-.318.421.421,0,0,1,.39.205.546.546,0,0,1,.062.246q0,.287-.41.492-.328.185-.328.267,0,.041.185.1a3.4,3.4,0,0,0,1.148.205,3.8,3.8,0,0,0,.81-.1q.461-.1,1.23-.308t1.5-.431q.728-.226,1.077-.369a.8.8,0,0,1,.308-.082.314.314,0,0,1,.215.082.542.542,0,0,1,.144.215.765.765,0,0,1,.051.277.555.555,0,0,1-.144.41,14.3,14.3,0,0,1-1.9.625A21.682,21.682,0,0,1,54-3.917q-.39.062-.39.205v.041a3.143,3.143,0,0,1,.246,1.107,1.743,1.743,0,0,1-.718,1.313,2.794,2.794,0,0,1-1.107.615A2.759,2.759,0,0,1,51.393-.492Zm0-1.025a1.441,1.441,0,0,0,.328-.1l.123-.062q.923-.39.923-1.025A1.351,1.351,0,0,0,52.6-3.3a.938.938,0,0,0-.923-.574,1.153,1.153,0,0,1-.3-.041.689.689,0,0,1-.256-.123.31.31,0,0,0-.185-.082q-.1,0-.328.5a2.256,2.256,0,0,0-.226.913,1.2,1.2,0,0,0,.759,1.087.22.22,0,0,0,.072.041q.051.021.092.041A.182.182,0,0,0,51.393-1.518ZM58,2.051A1.079,1.079,0,0,1,56.786.82,3.12,3.12,0,0,1,58.3-1.436a5.816,5.816,0,0,0,.861-.779,5.416,5.416,0,0,0-.615-.8,2.863,2.863,0,0,1-.943-1.661q0-.677,1.066-1.087a2.219,2.219,0,0,1,.759-.185,1.376,1.376,0,0,1,.79.215.61.61,0,0,1,.318.5.637.637,0,0,1-.072.256.294.294,0,0,1-.3.154l-.615-.062a1.7,1.7,0,0,0-.595.092q-.246.092-.246.256a2.974,2.974,0,0,0,.543.749,9.433,9.433,0,0,1,.831,1.118q.369-.226.718-.42t.861-.5q.513-.308.984-.615a5.456,5.456,0,0,1,2.03-1.066.356.356,0,0,1,.349.226.51.51,0,0,1,.062.226.611.611,0,0,1-.236.39,6.466,6.466,0,0,1-.872.636q-1.251.82-2.4,1.477l-1.046.636A6.821,6.821,0,0,1,60.7-.636,2.538,2.538,0,0,1,60.221.851a2.939,2.939,0,0,1-1.343,1.036A2.352,2.352,0,0,1,58,2.051Zm.082-1A1.782,1.782,0,0,0,58.9.677a2.167,2.167,0,0,0,.461-.39A1.278,1.278,0,0,0,59.6-.174a1.732,1.732,0,0,0,.082-.482.976.976,0,0,0-.031-.256.131.131,0,0,0-.133-.113q-.144,0-.677.492-1,.882-1,1.313Q57.832,1.046,58.078,1.046ZM90.85,15.34a.655.655,0,0,1-.42-.123.523.523,0,0,1-.154-.431q0-.533.492-4,.574-3.917.9-6.562Q92.162.7,93.5-7.506q.533-3.261,1.415-6.727l.328-1.477a4.061,4.061,0,0,0-.656.984q-2.953,4.963-5.865,6.439a5.338,5.338,0,0,1-2.174.451,4.486,4.486,0,0,1-1.907-.39,5.067,5.067,0,0,1-2.42-3.24,23.665,23.665,0,0,1-.4-2.348q-.215-1.61-.3-2.881-.062-1-.144-1h-.021q-.185.41-1.148,4.614-.677,2.994-1.312,6.542Q77.93-1.128,77.786.246q-.123,1.21-.595,1.21-.144,0-.349-.226a.474.474,0,0,1-.185-.308,3.717,3.717,0,0,1-.041-.656A2.69,2.69,0,0,1,76.73-.7q.113-.246.728-3.773.82-4.676,1.753-8.911T80.9-20a8.434,8.434,0,0,0,.246-.82,15.5,15.5,0,0,0,.123-2.153q.021-1.271.062-1.6a.679.679,0,0,1,.205-.461.479.479,0,0,1,.267-.133.389.389,0,0,1,.236.113q.133.113.185.718t.092,2.676q.062,3.138.3,5.793a26.411,26.411,0,0,0,.6,4.071A3.377,3.377,0,0,0,86.728-8.88,4.8,4.8,0,0,0,90.091-10.6q3.9-3.609,7.567-13.433a9.475,9.475,0,0,1,.841-1.917.5.5,0,0,1,.267-.092.754.754,0,0,1,.369.1.378.378,0,0,1,.205.308,8.85,8.85,0,0,1-.492,1.825A110.965,110.965,0,0,0,95.033-9.639q-.41,2.01-.82,4.614-.472,3.117-.769,5.014t-.995,6.86q-.574,4.184-.615,4.614a9.966,9.966,0,0,0-.082,1.1,6.644,6.644,0,0,1-.082.954,5.2,5.2,0,0,1-.41,1.682A.555.555,0,0,1,90.85,15.34ZM99.36-.718a1.987,1.987,0,0,1-.738-.123A3.978,3.978,0,0,1,97.73-1.4,3.331,3.331,0,0,1,97-2.153,2.375,2.375,0,0,1,96.735-3.3a3.471,3.471,0,0,1,.328-1.456q.984-1.825,2.3-1.825a.813.813,0,0,1,.687.256,1.57,1.57,0,0,1,.195.913,2.639,2.639,0,0,1-.236,1.1,8.378,8.378,0,0,1-.913,1.425l-.615.841q.226.082.461.185a1.246,1.246,0,0,0,.5.1,2.344,2.344,0,0,0,.472-.062,22.732,22.732,0,0,0,6.234-3.158q.656-.451,1.159-.738a2.984,2.984,0,0,1,.564-.287.392.392,0,0,1,.431.431.866.866,0,0,1-.328.615,23.377,23.377,0,0,1-2.2,1.456q-1.589.964-2.861,1.62A8.721,8.721,0,0,1,99.36-.718ZM97.8-3.1q.082,0,.328-.267A6.874,6.874,0,0,0,98.643-4a4.529,4.529,0,0,0,.431-.718,2.014,2.014,0,0,0,.205-.677q0-.144-.1-.144-.164,0-.636.472a3.035,3.035,0,0,0-.574.892,2.306,2.306,0,0,0-.226.872Q97.74-3.1,97.8-3.1ZM107.276-.39a.436.436,0,0,1-.39-.246.509.509,0,0,1-.021-.185,24.646,24.646,0,0,1,.328-2.707q.287-1.784.39-2.256t.256-.564a.532.532,0,0,1,.256-.092q.472,0,.472.574a10.88,10.88,0,0,1-.185,1.251,6.214,6.214,0,0,0-.123.841q0,.041.021.041.1,0,.595-.554a4.423,4.423,0,0,1,2.687-1.62.929.929,0,0,1,.615.205.9.9,0,0,1,.205.246,3.882,3.882,0,0,1,.123,1.066,6.837,6.837,0,0,0,.072.882q.051.287.236.287a2.721,2.721,0,0,0,1.21-.738,1.747,1.747,0,0,1,.82-.451l.123.021a.4.4,0,0,1,.349.431.815.815,0,0,1-.041.236q-.041.133-.5.492t-.974.708a2.334,2.334,0,0,1-1.046.431,1.284,1.284,0,0,1-.964-.472.916.916,0,0,1-.195-.451,6.837,6.837,0,0,1-.072-.882q-.041-1-.144-1l-.246.123a7.776,7.776,0,0,0-1.907,1.641,4.554,4.554,0,0,0-.882,1.292,1.4,1.4,0,0,1-.308.584.4.4,0,0,0-.144.338.467.467,0,0,1-.195.379A.665.665,0,0,1,107.276-.39Zm9.577-.328a1.987,1.987,0,0,1-.738-.123,3.978,3.978,0,0,1-.892-.564,3.331,3.331,0,0,1-.728-.749,2.375,2.375,0,0,1-.267-1.148,3.471,3.471,0,0,1,.328-1.456q.984-1.825,2.3-1.825a.813.813,0,0,1,.687.256,1.57,1.57,0,0,1,.195.913,2.639,2.639,0,0,1-.236,1.1,8.378,8.378,0,0,1-.913,1.425l-.615.841q.226.082.461.185a1.246,1.246,0,0,0,.5.1,2.344,2.344,0,0,0,.472-.062,22.732,22.732,0,0,0,6.234-3.158q.656-.451,1.159-.738a2.984,2.984,0,0,1,.564-.287.392.392,0,0,1,.431.431.866.866,0,0,1-.328.615,23.377,23.377,0,0,1-2.2,1.456q-1.589.964-2.861,1.62A8.721,8.721,0,0,1,116.854-.718ZM115.295-3.1q.082,0,.328-.267A6.874,6.874,0,0,0,116.136-4a4.529,4.529,0,0,0,.431-.718,2.014,2.014,0,0,0,.205-.677q0-.144-.1-.144-.164,0-.636.472a3.035,3.035,0,0,0-.574.892,2.306,2.306,0,0,0-.226.872Q115.233-3.1,115.295-3.1Zm9.639,5.147a1.079,1.079,0,0,1-1.21-1.23,3.12,3.12,0,0,1,1.518-2.256,5.816,5.816,0,0,0,.861-.779,5.416,5.416,0,0,0-.615-.8,2.863,2.863,0,0,1-.943-1.661q0-.677,1.066-1.087a2.219,2.219,0,0,1,.759-.185,1.376,1.376,0,0,1,.79.215.61.61,0,0,1,.318.5.637.637,0,0,1-.072.256.294.294,0,0,1-.3.154l-.615-.062a1.7,1.7,0,0,0-.595.092q-.246.092-.246.256a2.974,2.974,0,0,0,.543.749,9.433,9.433,0,0,1,.831,1.118q.369-.226.718-.42t.861-.5q.513-.308.984-.615a5.456,5.456,0,0,1,2.03-1.066.356.356,0,0,1,.349.226.51.51,0,0,1,.062.226.611.611,0,0,1-.236.39,6.466,6.466,0,0,1-.872.636q-1.251.82-2.4,1.477l-1.046.636a6.821,6.821,0,0,1,.164,1.046,2.538,2.538,0,0,1-.482,1.487,2.939,2.939,0,0,1-1.343,1.036A2.352,2.352,0,0,1,124.934,2.051Zm.082-1a1.782,1.782,0,0,0,.82-.369,2.167,2.167,0,0,0,.461-.39,1.278,1.278,0,0,0,.236-.461,1.732,1.732,0,0,0,.082-.482.976.976,0,0,0-.031-.256.131.131,0,0,0-.133-.113q-.144,0-.677.492-1,.882-1,1.313Q124.77,1.046,125.016,1.046Zm8.306-1.764a1.987,1.987,0,0,1-.738-.123,3.978,3.978,0,0,1-.892-.564,3.331,3.331,0,0,1-.728-.749A2.375,2.375,0,0,1,130.7-3.3a3.471,3.471,0,0,1,.328-1.456q.984-1.825,2.3-1.825a.813.813,0,0,1,.687.256,1.57,1.57,0,0,1,.195.913,2.639,2.639,0,0,1-.236,1.1,8.378,8.378,0,0,1-.913,1.425l-.615.841q.226.082.461.185a1.246,1.246,0,0,0,.5.1,2.344,2.344,0,0,0,.472-.062,22.732,22.732,0,0,0,6.234-3.158q.656-.451,1.159-.738a2.984,2.984,0,0,1,.564-.287.392.392,0,0,1,.431.431.866.866,0,0,1-.328.615,23.377,23.377,0,0,1-2.2,1.456q-1.589.964-2.861,1.62A8.721,8.721,0,0,1,133.321-.718ZM131.763-3.1q.082,0,.328-.267A6.874,6.874,0,0,0,132.6-4a4.529,4.529,0,0,0,.431-.718,2.014,2.014,0,0,0,.205-.677q0-.144-.1-.144-.164,0-.636.472a3.035,3.035,0,0,0-.574.892,2.306,2.306,0,0,0-.226.872Q131.7-3.1,131.763-3.1ZM141.4,2.051a1.079,1.079,0,0,1-1.21-1.23,3.12,3.12,0,0,1,1.518-2.256,5.816,5.816,0,0,0,.861-.779,5.416,5.416,0,0,0-.615-.8,2.863,2.863,0,0,1-.943-1.661q0-.677,1.066-1.087a2.219,2.219,0,0,1,.759-.185,1.376,1.376,0,0,1,.79.215.61.61,0,0,1,.318.5.637.637,0,0,1-.072.256.294.294,0,0,1-.3.154l-.615-.062a1.7,1.7,0,0,0-.595.092q-.246.092-.246.256a2.974,2.974,0,0,0,.543.749,9.433,9.433,0,0,1,.831,1.118q.369-.226.718-.42t.861-.5q.513-.308.984-.615a5.456,5.456,0,0,1,2.03-1.066.356.356,0,0,1,.349.226.51.51,0,0,1,.062.226.611.611,0,0,1-.236.39,6.466,6.466,0,0,1-.872.636q-1.251.82-2.4,1.477l-1.046.636a6.821,6.821,0,0,1,.164,1.046,2.538,2.538,0,0,1-.482,1.487,2.939,2.939,0,0,1-1.343,1.036A2.352,2.352,0,0,1,141.4,2.051Zm.082-1a1.782,1.782,0,0,0,.82-.369,2.167,2.167,0,0,0,.461-.39A1.278,1.278,0,0,0,143-.174a1.732,1.732,0,0,0,.082-.482.976.976,0,0,0-.031-.256.131.131,0,0,0-.133-.113q-.144,0-.677.492-1,.882-1,1.313Q141.237,1.046,141.483,1.046Z" transform="translate(0.697 26.045)" fill="#fff"/>
</svg>
