<?xml version="1.0" standalone="no"?>
<!DOCTYPE svg PUBLIC "-//W3C//DTD SVG 20010904//EN"
 "http://www.w3.org/TR/2001/REC-SVG-20010904/DTD/svg10.dtd">
<svg version="1.0" xmlns="http://www.w3.org/2000/svg"
 width="363.000000pt" height="363.000000pt" viewBox="0 0 363.000000 363.000000"
 preserveAspectRatio="xMidYMid meet">
<metadata>
Created by potrace 1.11, written by Peter Selinger 2001-2013
</metadata>
<g transform="translate(0.000000,363.000000) scale(0.100000,-0.100000)"
fill="#000000" stroke="none">
<path d="M205 3441 l-200 -117 -3 -701 -2 -701 92 -54 c51 -29 102 -58 113
-65 11 -7 27 -15 35 -19 8 -4 31 -17 50 -29 19 -12 55 -33 80 -47 25 -14 82
-47 128 -74 46 -27 107 -62 136 -79 104 -59 348 -200 384 -223 20 -12 44 -25
52 -29 8 -4 43 -24 78 -45 l63 -38 56 31 c30 17 78 44 105 60 27 16 52 29 55
29 4 0 14 6 22 13 9 8 46 30 84 51 l67 37 0 -217 c-1 -166 2 -220 12 -229 7
-7 101 -63 208 -124 172 -99 197 -111 215 -100 21 13 386 222 465 267 25 13
98 56 162 93 64 38 121 69 127 69 7 0 10 -145 10 -446 0 -245 1 -447 3 -448 2
-1 95 -55 207 -120 150 -87 208 -116 221 -109 9 4 103 57 208 118 l192 110 -2
704 c-3 613 -5 705 -18 712 -8 5 -46 26 -84 49 -37 22 -70 40 -71 40 -2 0 -53
29 -114 64 -61 36 -116 66 -123 68 -14 2 -34 -9 -258 -141 -101 -59 -138 -76
-146 -68 -6 7 -25 37 -41 67 -28 52 -154 270 -287 499 -66 114 -67 114 -273
226 -37 21 -72 41 -78 45 -5 5 -35 22 -66 39 l-56 30 -76 -44 c-42 -25 -81
-45 -87 -45 -5 0 -10 -4 -10 -10 0 -5 -4 -10 -9 -10 -5 0 -51 -25 -102 -55
l-94 -55 -5 222 -5 222 -185 108 c-102 60 -192 111 -200 115 -8 4 -51 28 -95
54 -44 26 -96 56 -115 67 -19 10 -165 94 -323 186 -159 91 -292 166 -295 165
-4 0 -97 -53 -207 -118z m1395 -1281 c-1 -110 -4 -200 -8 -200 -4 0 -18 9 -32
20 -14 11 -28 20 -31 20 -6 0 -211 117 -257 147 -23 14 -20 17 145 113 92 54
171 98 176 99 4 0 7 -89 7 -199z"/>
</g>
</svg>
